<?xml version="1.0" encoding="UTF-8"?>
<svg width="256px" height="256px" viewBox="0 0 256 256" version="1.1" xmlns="http://www.w3.org/2000/svg" xmlns:xlink="http://www.w3.org/1999/xlink">
    <title>newmall-logo</title>
    <defs>
        <radialGradient cx="0%" cy="0%" fx="0%" fy="0%" r="141.421356%" id="radialGradient-1">
            <stop stop-color="#FCE13C" offset="0%"></stop>
            <stop stop-color="#FCE13C" offset="15.8476826%"></stop>
            <stop stop-color="#FCE13C" offset="27.2170588%"></stop>
            <stop stop-color="#FCE13C" offset="42.3856633%"></stop>
            <stop stop-color="#F9B924" offset="81.9822425%"></stop>
            <stop stop-color="#F9B924" offset="99.9562937%"></stop>
        </radialGradient>
    </defs>
    <g id="newmall-logo" stroke="none" stroke-width="1" fill="none" fill-rule="evenodd">
        <path d="M128,0 C198.692448,-1.2985992e-14 256,57.307552 256,128 C256,198.692448 198.692448,256 128,256 C57.307552,256 8.65732801e-15,198.692448 0,128 C-8.65732801e-15,57.307552 57.307552,1.2985992e-14 128,0 Z M128,16 C66.144108,16 16,66.144108 16,128 C16,189.855892 66.144108,240 128,240 C189.855892,240 240,189.855892 240,128 C240,66.144108 189.855892,16 128,16 Z M128,24 C185.437614,24 232,70.562386 232,128 C232,185.437614 185.437614,232 128,232 C70.562386,232 24,185.437614 24,128 C24,70.562386 70.562386,24 128,24 Z M101,108 C97.6862915,108 95,110.686292 95,114 L95,114 L95,195 C95,198.313708 97.6862915,201 101,201 C104.313708,201 107,198.313708 107,195 L107,195 L107,114 C107,110.686292 104.313708,108 101,108 Z M128,67 C124.686292,67 122,69.6862915 122,73 L122,73 L122,183 C122,186.313708 124.686292,189 128,189 C131.313708,189 134,186.313708 134,183 L134,183 L134,73 C134,69.6862915 131.313708,67 128,67 Z M74,134 C70.6862915,134 68,136.686292 68,140 L68,140 L68,170 C68,173.313708 70.6862915,176 74,176 C77.3137085,176 80,173.313708 80,170 L80,170 L80,140 C80,136.686292 77.3137085,134 74,134 Z M155,55 C151.686292,55 149,57.6862915 149,61 L149,61 L149,142 C149,145.313708 151.686292,148 155,148 C158.313708,148 161,145.313708 161,142 L161,142 L161,61 C161,57.6862915 158.313708,55 155,55 Z M182,81 C178.686292,81 176,83.6862915 176,87 L176,87 L176,117 C176,120.313708 178.686292,123 182,123 C185.313708,123 188,120.313708 188,117 L188,117 L188,87 C188,83.6862915 185.313708,81 182,81 Z" fill="url(#radialGradient-1)"></path>
    </g>
</svg>